<svg xmlns="http://www.w3.org/2000/svg" xmlns:xlink="http://www.w3.org/1999/xlink" width="137.929" height="152.351" viewBox="0 0 137.929 152.351">
  <defs>
    <filter id="Rectangle_7" x="0" y="0" width="137.929" height="152.351" filterUnits="userSpaceOnUse">
      <feOffset dy="12" input="SourceAlpha"/>
      <feGaussianBlur stdDeviation="3" result="blur"/>
      <feFlood flood-opacity="0.161"/>
      <feComposite operator="in" in2="blur"/>
      <feComposite in="SourceGraphic"/>
    </filter>
  </defs>
  <g id="Group_42" data-name="Group 42" transform="translate(0 0)">
    <g transform="matrix(1, 0, 0, 1, 0, 0)" filter="url(#Rectangle_7)">
      <rect id="Rectangle_7-2" data-name="Rectangle 7" width="119.929" height="131.351" rx="18" transform="translate(9 0)" fill="#012d54" opacity="0.74"/>
    </g>
    <text id="Contains-" transform="translate(31.083 26.033)" fill="#fff" font-size="11" font-family="Roboto-Bold, Roboto" font-weight="700"><tspan x="0" y="0">Contains-</tspan></text>
    <g id="Group_8" data-name="Group 8" transform="translate(38.431 42.666)">
      <text id="No_Caffeine" data-name="No Caffeine" transform="translate(0 6)" fill="#fff" font-size="6" font-family="Roboto-Medium, Roboto" font-weight="500"><tspan x="0" y="0">No Caffeine</tspan></text>
      <text id="Vitamins" transform="translate(0 27.43)" fill="#fff" font-size="6" font-family="Roboto-Medium, Roboto" font-weight="500"><tspan x="0" y="0">Vitamins</tspan></text>
      <text id="Atrificial_Crap" data-name="Atrificial Crap" transform="translate(0 48.859)" fill="#fff" font-size="6" font-family="Roboto-Medium, Roboto" font-weight="500"><tspan x="0" y="0">Atrificial Crap</tspan></text>
      <text id="Nothing_like_Coke" data-name="Nothing like Coke" transform="translate(0 70.289)" fill="#fff" font-size="6" font-family="Roboto-Medium, Roboto" font-weight="500"><tspan x="0" y="0">Nothing like Coke</tspan></text>
    </g>
    <g id="Group_36" data-name="Group 36" transform="translate(24.316 46.262)">
      <ellipse id="Ellipse_66" data-name="Ellipse 66" cx="1.816" cy="1.816" rx="1.816" ry="1.816" fill="#fff"/>
      <ellipse id="Ellipse_67" data-name="Ellipse 67" cx="1.816" cy="1.816" rx="1.816" ry="1.816" transform="translate(0 20.643)" fill="#fff"/>
      <ellipse id="Ellipse_68" data-name="Ellipse 68" cx="1.816" cy="1.816" rx="1.816" ry="1.816" transform="translate(0 42.196)" fill="#fff"/>
      <ellipse id="Ellipse_69" data-name="Ellipse 69" cx="1.816" cy="1.816" rx="1.816" ry="1.816" transform="translate(0 63.749)" fill="#fff"/>
    </g>
  </g>
</svg>
