<svg xmlns="http://www.w3.org/2000/svg" xmlns:xlink="http://www.w3.org/1999/xlink" width="28.551" height="28.551" viewBox="0 0 28.551 28.551">
  <defs>
    <clipPath id="clip-path">
      <rect width="28.551" height="28.551" fill="none"/>
    </clipPath>
  </defs>
  <g id="instagram" transform="translate(0)" clip-path="url(#clip-path)">
    <path id="Path_12" data-name="Path 12" d="M664.2,96.5a14.276,14.276,0,1,1,14.275-14.275A14.292,14.292,0,0,1,664.2,96.5Z" transform="translate(-649.92 -67.947)" fill="#fff"/>
    <path id="Path_14" data-name="Path 14" d="M673.839,81.747a1.05,1.05,0,1,0,1.05,1.05A1.05,1.05,0,0,0,673.839,81.747Zm-4.666,1.346a4.409,4.409,0,1,0,4.408,4.409A4.414,4.414,0,0,0,669.174,83.093Zm0,7.233A2.824,2.824,0,1,1,672,87.5,2.827,2.827,0,0,1,669.174,90.326Zm8.9-6.488a5.377,5.377,0,0,0-5.377-5.377h-7.1a5.377,5.377,0,0,0-5.377,5.377v7.1a5.377,5.377,0,0,0,5.377,5.377h7.1a5.377,5.377,0,0,0,5.377-5.377Zm-1.684,7.1a3.693,3.693,0,0,1-3.693,3.693h-7.1a3.693,3.693,0,0,1-3.693-3.693v-7.1a3.693,3.693,0,0,1,3.693-3.693h7.1a3.693,3.693,0,0,1,3.693,3.693Z" transform="translate(-654.832 -72.961)" fill="#004883"/>
  </g>
</svg>
