<svg xmlns="http://www.w3.org/2000/svg" xmlns:xlink="http://www.w3.org/1999/xlink" width="28.551" height="28.551" viewBox="0 0 28.551 28.551">
  <defs>
    <clipPath id="clip-path">
      <rect width="28.551" height="28.551" fill="none"/>
    </clipPath>
  </defs>
  <g id="twitter" transform="translate(0)" clip-path="url(#clip-path)">
    <path id="Path_5" data-name="Path 5" d="M512.659,91.5a14.276,14.276,0,1,1,14.276-14.275A14.291,14.291,0,0,1,512.659,91.5Z" transform="translate(-498.384 -62.947)" fill="#fff"/>
    <g id="Group_14" data-name="Group 14" transform="translate(5.903 7.423)">
      <path id="Path_6" data-name="Path 6" d="M526.247,78.781a6.826,6.826,0,0,1-1.681.48c.27-.046.67-.536.83-.734a3.1,3.1,0,0,0,.56-1.019c.015-.029.026-.066,0-.088a.094.094,0,0,0-.089.007,8.575,8.575,0,0,1-2,.764.133.133,0,0,1-.138-.037,1.609,1.609,0,0,0-.175-.178,3.532,3.532,0,0,0-.967-.593,3.369,3.369,0,0,0-1.483-.239,3.545,3.545,0,0,0-1.407.4,3.633,3.633,0,0,0-1.135.927,3.5,3.5,0,0,0-.678,1.358,3.675,3.675,0,0,0-.036,1.434c.01.08,0,.091-.069.08a10.662,10.662,0,0,1-6.86-3.492c-.08-.091-.123-.091-.189.007a3.478,3.478,0,0,0,.593,4.11c.134.127.272.255.422.371a3.485,3.485,0,0,1-1.324-.371c-.08-.051-.12-.021-.127.069a2.073,2.073,0,0,0,.021.393,3.518,3.518,0,0,0,2.168,2.8,2.037,2.037,0,0,0,.44.134,3.918,3.918,0,0,1-1.3.04c-.095-.018-.131.029-.095.12a3.652,3.652,0,0,0,2.728,2.284c.124.021.247.021.371.051-.007.011-.015.011-.022.022a4.323,4.323,0,0,1-1.863.988,6.676,6.676,0,0,1-2.83.362c-.152-.022-.184-.021-.225,0s-.005.062.044.1c.193.128.389.241.589.349a9.348,9.348,0,0,0,1.891.757,10.074,10.074,0,0,0,9.78-2.287,10.263,10.263,0,0,0,2.707-7.487c0-.108.127-.167.2-.224a6.59,6.59,0,0,0,1.325-1.385.4.4,0,0,0,.082-.265v-.015C526.309,78.737,526.315,78.751,526.247,78.781Z" transform="translate(-509.67 -77.139)" fill="#004883"/>
    </g>
    <g id="Group_15" data-name="Group 15" transform="translate(10.845 21.069)">
      <path id="Path_7" data-name="Path 7" d="M519.118,103.228Z" transform="translate(-519.118 -103.228)" fill="#004883" fill-rule="evenodd"/>
    </g>
    <g id="Group_16" data-name="Group 16" transform="translate(10.718 21.069)">
      <path id="Path_8" data-name="Path 8" d="M519,103.228c-.022,0-.275,0,0,0Z" transform="translate(-518.875 -103.228)" fill="#004883" fill-rule="evenodd"/>
    </g>
    <g id="Group_17" data-name="Group 17" transform="translate(11.405 21.072)">
      <path id="Path_9" data-name="Path 9" d="M520.189,103.245c0-.028.294,0,0,0C520.189,103.23,520.225,103.245,520.189,103.245Z" transform="translate(-520.189 -103.232)" fill="#004883" fill-rule="evenodd"/>
    </g>
    <g id="Group_18" data-name="Group 18" transform="translate(17.221 7.443)">
      <path id="Path_10" data-name="Path 10" d="M531.377,77.177a.06.06,0,0,1-.069,0Z" transform="translate(-531.308 -77.177)" fill="#004883" fill-rule="evenodd"/>
    </g>
  </g>
</svg>
